<?xml version="1.0" standalone="no"?><!DOCTYPE svg PUBLIC "-//W3C//DTD SVG 1.1//EN" "http://www.w3.org/Graphics/SVG/1.1/DTD/svg11.dtd"><svg t="1631011035464" class="icon" viewBox="0 0 1024 1024" version="1.1" xmlns="http://www.w3.org/2000/svg" p-id="1971" xmlns:xlink="http://www.w3.org/1999/xlink" width="200" height="200"><defs><style type="text/css"></style></defs><path d="M631.590788 214.729697a31.030303 31.030303 0 0 1 31.030303-31.030303h155.151515a31.030303 31.030303 0 0 1 31.030303 31.030303v155.151515a31.030303 31.030303 0 1 1-62.060606 0v-124.121212h-124.121212a31.030303 31.030303 0 0 1-31.030303-31.030303zM197.166545 649.153939a31.030303 31.030303 0 0 1 31.030303 31.030303v124.121213h124.121213a31.030303 31.030303 0 0 1 0 62.060606h-155.151516a31.030303 31.030303 0 0 1-31.030303-31.030303v-155.151516a31.030303 31.030303 0 0 1 31.030303-31.030303zM817.772606 649.153939a31.030303 31.030303 0 0 1 31.030303 31.030303v155.151516a31.030303 31.030303 0 0 1-31.030303 31.030303h-155.151515a31.030303 31.030303 0 1 1 0-62.060606h124.121212v-124.121213a31.030303 31.030303 0 0 1 31.030303-31.030303zM166.136242 214.729697a31.030303 31.030303 0 0 1 31.030303-31.030303h155.151516a31.030303 31.030303 0 1 1 0 62.060606h-124.121213v124.121212a31.030303 31.030303 0 1 1-62.060606 0v-155.151515z" fill="#303133" p-id="1972"></path></svg>