<?xml version="1.0" standalone="no"?><!DOCTYPE svg PUBLIC "-//W3C//DTD SVG 1.1//EN" "http://www.w3.org/Graphics/SVG/1.1/DTD/svg11.dtd"><svg t="1631010978789" class="icon" viewBox="0 0 1024 1024" version="1.1" xmlns="http://www.w3.org/2000/svg" p-id="1556" xmlns:xlink="http://www.w3.org/1999/xlink" width="200" height="200"><defs><style type="text/css"></style></defs><path d="M754.563879 176.965818a62.060606 62.060606 0 0 1 63.208727 62.060606v572.012606a62.060606 62.060606 0 0 1-94.425212 52.968728L255.379394 578.001455a62.060606 62.060606 0 0 1 0-105.906425l467.99903-286.006303a62.060606 62.060606 0 0 1 31.216485-9.122909z m1.148121 62.060606L287.71297 525.032727l467.99903 286.006303V239.026424z" fill="#303133" p-id="1557"></path><path d="M228.196848 152.669091a31.030303 31.030303 0 0 1 31.030304 31.030303v682.666667a31.030303 31.030303 0 1 1-62.060607 0v-682.666667a31.030303 31.030303 0 0 1 31.030303-31.030303z" fill="#303133" p-id="1558"></path></svg>