<?xml version="1.0" standalone="no"?><!DOCTYPE svg PUBLIC "-//W3C//DTD SVG 1.1//EN" "http://www.w3.org/Graphics/SVG/1.1/DTD/svg11.dtd"><svg t="1631010991861" class="icon" viewBox="0 0 1024 1024" version="1.1" xmlns="http://www.w3.org/2000/svg" p-id="1693" xmlns:xlink="http://www.w3.org/1999/xlink" width="200" height="200"><defs><style type="text/css"></style></defs><path d="M228.879515 184.909576a62.060606 62.060606 0 0 1 62.681212 1.179151l468.030061 285.975273a62.060606 62.060606 0 0 1 0 105.937455L291.591758 864.007758a62.091636 62.091636 0 0 1-94.425213-52.968728V239.026424A62.060606 62.060606 0 0 1 228.879515 184.940606z m498.346667 340.123151L259.227152 239.026424v572.012606l467.99903-286.006303z" fill="#303133" p-id="1694"></path><path d="M786.742303 152.669091a31.030303 31.030303 0 0 1 31.030303 31.030303v682.666667a31.030303 31.030303 0 1 1-62.060606 0v-682.666667a31.030303 31.030303 0 0 1 31.030303-31.030303z" fill="#303133" p-id="1695"></path></svg>