<?xml version="1.0" standalone="no"?><!DOCTYPE svg PUBLIC "-//W3C//DTD SVG 1.1//EN" "http://www.w3.org/Graphics/SVG/1.1/DTD/svg11.dtd"><svg t="1631003017521" class="icon" viewBox="0 0 1024 1024" version="1.1" xmlns="http://www.w3.org/2000/svg" p-id="8417" xmlns:xlink="http://www.w3.org/1999/xlink" width="200" height="200"><defs><style type="text/css"></style></defs><path d="M832 64c35.328 0 64 30.848 64 68.928V448h-64V128H128v768h256v64H128c-35.328 0-64-30.848-64-68.928V132.928C64 94.848 92.672 64 128 64h704zM575.488 498.88l6.016 5.376L704 626.752l122.496-122.496a64 64 0 0 1 84.48-5.376l6.016 5.376-167.744 167.68 68.288 68.224A112.064 112.064 0 0 1 960 848a112 112 0 1 1-197.568-72.32L704 717.312l-58.432 58.496a112 112 0 1 1-55.104-35.52l68.224-68.224-167.68-167.744 6.016-5.376a64 64 0 0 1 78.464 0zM848 800a48 48 0 1 0 0 96 48 48 0 0 0 0-96z m-288 0a48 48 0 1 0 0 96 48 48 0 0 0 0-96zM768 192v325.44l-64 64.064-99.84-99.84-9.088-8-8.192-5.76c-30.912-19.2-70.4-19.2-101.312 0l-8.192 5.76-33.088 29.12 169.088 169.152-33.536 33.536-6.592-0.896-6.592-0.448L560 704a144 144 0 0 0-143.104 128H192V192h576z" p-id="8418"></path></svg>