<?xml version="1.0" standalone="no"?><!DOCTYPE svg PUBLIC "-//W3C//DTD SVG 1.1//EN" "http://www.w3.org/Graphics/SVG/1.1/DTD/svg11.dtd"><svg t="1630986169263" class="icon" viewBox="0 0 1024 1024" version="1.1" xmlns="http://www.w3.org/2000/svg" p-id="7210" xmlns:xlink="http://www.w3.org/1999/xlink" width="200" height="200"><defs><style type="text/css"></style></defs><path d="M291.84 126.464v158.208h61.44V65.536H65.024v894.464H353.28v-219.648H291.84v158.208H126.464V126.464H291.84z m667.136-60.928H670.72v219.648h61.44v-158.72h165.888v771.584H732.16v-158.208h-61.44v219.648h288.768l-0.512-893.952z" fill="#181818" p-id="7211"></path><path d="M250.368 557.056l103.936 103.936 45.056-45.056-71.68-71.68 137.216-0.512V480.256L327.68 479.744l71.168-71.168-45.056-45.056-148.48 148.48 45.056 45.056zM774.656 467.456L670.72 363.52l-45.056 45.056 71.68 71.68-137.216 0.512v63.488l137.216 0.512-71.168 71.168 45.056 45.056 148.48-148.48-45.056-45.056z" fill="#181818" p-id="7212"></path></svg>