<?xml version="1.0" standalone="no"?><!DOCTYPE svg PUBLIC "-//W3C//DTD SVG 1.1//EN" "http://www.w3.org/Graphics/SVG/1.1/DTD/svg11.dtd"><svg t="1631010963790" class="icon" viewBox="0 0 1024 1024" version="1.1" xmlns="http://www.w3.org/2000/svg" p-id="1418" xmlns:xlink="http://www.w3.org/1999/xlink" width="200" height="200"><defs><style type="text/css"></style></defs><path d="M585.045333 214.729697a62.060606 62.060606 0 0 1 62.060606-62.060606h139.636364a62.060606 62.060606 0 0 1 62.060606 62.060606v620.606061a62.060606 62.060606 0 0 1-62.060606 62.060606h-139.636364a62.060606 62.060606 0 0 1-62.060606-62.060606v-620.606061z m201.69697 0h-139.636364v620.606061h139.636364v-620.606061zM166.136242 214.729697a62.060606 62.060606 0 0 1 62.060606-62.060606h139.636364a62.060606 62.060606 0 0 1 62.060606 62.060606v620.606061a62.060606 62.060606 0 0 1-62.060606 62.060606h-139.636364a62.060606 62.060606 0 0 1-62.060606-62.060606v-620.606061z m201.69697 0h-139.636364v620.606061h139.636364v-620.606061z" fill="#303133" p-id="1419"></path></svg>