<?xml version="1.0" standalone="no"?><!DOCTYPE svg PUBLIC "-//W3C//DTD SVG 1.1//EN" "http://www.w3.org/Graphics/SVG/1.1/DTD/svg11.dtd"><svg t="1631003261301" class="icon" viewBox="0 0 1024 1024" version="1.1" xmlns="http://www.w3.org/2000/svg" p-id="11504" xmlns:xlink="http://www.w3.org/1999/xlink" width="200" height="200"><defs><style type="text/css"></style></defs><path d="M548.52 923.53H168.65c-57.59 0-104.44-46.73-104.44-104.16V204.19c0-57.43 46.85-104.16 104.44-104.16h686.26c57.55 0 104.41 46.73 104.41 104.16v306.54c0 19.77-16.01 35.8-35.8 35.8-19.79 0-35.8-16.03-35.8-35.8V204.19c0-17.95-14.72-32.55-32.8-32.55H168.65c-18.11 0-32.83 14.6-32.83 32.55v615.18c0 17.95 14.72 32.55 32.83 32.55h379.86c19.79 0 35.8 16.03 35.8 35.8s-16 35.81-35.79 35.81z" fill="#333333" p-id="11505"></path><path d="M545.33 780.31H310.37c-56.75 0-102.94-45.89-102.94-102.29V345.56c0-56.42 46.19-102.31 102.94-102.31h402.8c56.75 0 102.94 45.89 102.94 102.31v164.56c0 19.77-16.01 35.8-35.8 35.8-19.79 0-35.8-16.03-35.8-35.8V345.56c0-16.92-14.06-30.7-31.33-30.7h-402.8c-17.27 0-31.33 13.78-31.33 30.7v332.47c0 16.92 14.06 30.68 31.33 30.68h234.97c19.79 0 35.8 16.03 35.8 35.8s-16.03 35.8-35.82 35.8z" fill="#333333" p-id="11506"></path><path d="M637.09 708.71h286.44c19.77 0 35.8 16.03 35.8 35.8 0 19.77-16.03 35.8-35.8 35.8H637.09c-19.77 0-35.8-16.03-35.8-35.8 0-19.77 16.03-35.8 35.8-35.8z" fill="#333333" p-id="11507"></path><path d="M816.12 601.29v286.44c0 19.77-16.03 35.8-35.8 35.8-19.77 0-35.8-16.03-35.8-35.8V601.29c0-19.77 16.03-35.8 35.8-35.8 19.77 0 35.8 16.03 35.8 35.8z" fill="#333333" p-id="11508"></path><path d="M469.14 601.29c-8.95 0-17.9-3.34-24.83-10.02l-76.05-73.25-76.08 73.25c-14.13 13.72-36.85 13.32-50.63-0.94-13.71-14.25-13.29-36.92 0.98-50.63l100.91-97.17c13.85-13.36 35.8-13.36 49.65 0l76.05 73.25L625.4 365.31c13.85-13.36 35.8-13.36 49.65 0l118.39 114.02c14.27 13.71 14.69 36.38 0.98 50.63-13.71 14.27-36.43 14.67-50.63 0.94l-93.57-90.11-156.25 150.48c-6.92 6.68-15.87 10.02-24.83 10.02z" fill="#333333" p-id="11509"></path></svg>