<?xml version="1.0" standalone="no"?><!DOCTYPE svg PUBLIC "-//W3C//DTD SVG 1.1//EN" "http://www.w3.org/Graphics/SVG/1.1/DTD/svg11.dtd"><svg t="1631011055079" class="icon" viewBox="0 0 1024 1024" version="1.1" xmlns="http://www.w3.org/2000/svg" p-id="2109" xmlns:xlink="http://www.w3.org/1999/xlink" width="200" height="200"><defs><style type="text/css"></style></defs><path d="M631.590788 183.699394a31.030303 31.030303 0 0 1 31.030303 31.030303v155.151515h155.151515a31.030303 31.030303 0 0 1 0 62.060606h-186.181818a31.030303 31.030303 0 0 1-31.030303-31.030303v-186.181818a31.030303 31.030303 0 0 1 31.030303-31.030303zM166.136242 649.153939a31.030303 31.030303 0 0 1 31.030303-31.030303h186.181819a31.030303 31.030303 0 0 1 31.030303 31.030303v186.181819a31.030303 31.030303 0 1 1-62.060606 0v-155.151516h-155.151516a31.030303 31.030303 0 0 1-31.030303-31.030303zM600.560485 649.153939a31.030303 31.030303 0 0 1 31.030303-31.030303h186.181818a31.030303 31.030303 0 0 1 0 62.060606h-155.151515v155.151516a31.030303 31.030303 0 1 1-62.060606 0v-186.181819zM383.348364 183.699394a31.030303 31.030303 0 0 1 31.030303 31.030303v186.181818a31.030303 31.030303 0 0 1-31.030303 31.030303h-186.181819a31.030303 31.030303 0 1 1 0-62.060606h155.151516v-155.151515a31.030303 31.030303 0 0 1 31.030303-31.030303z" fill="#303133" p-id="2110"></path></svg>