<?xml version="1.0" standalone="no"?><!DOCTYPE svg PUBLIC "-//W3C//DTD SVG 1.1//EN" "http://www.w3.org/Graphics/SVG/1.1/DTD/svg11.dtd"><svg t="1631003067358" class="icon" viewBox="0 0 1024 1024" version="1.1" xmlns="http://www.w3.org/2000/svg" p-id="9965" xmlns:xlink="http://www.w3.org/1999/xlink" width="200" height="200"><defs><style type="text/css"></style></defs><path d="M702.250667 87.722667l3.882666 1.92a32 32 0 0 1 13.653334 39.808l-1.92 3.882666-189.482667 325.376 230.186667 398.72 3.541333-2.816a202.709333 202.709333 0 0 0-134.826667-357.12 32 32 0 0 1-1.024-64 266.666667 266.666667 0 0 1 137.898667 497.621334 32 32 0 0 1-41.258667-8.106667l-2.432-3.626667-229.034666-396.672-228.992 396.672a32 32 0 0 1-43.733334 11.690667A266.666667 266.666667 0 0 1 356.608 433.493333a32 32 0 1 1-1.024 64 202.709333 202.709333 0 0 0-134.784 357.12l3.498667 2.816 230.186666-398.72-186.496-321.408-1.92-3.925333a32 32 0 0 1 9.685334-37.12l3.925333-2.688 3.925333-1.92a32 32 0 0 1 37.12 9.685333l2.688 3.968 168.021334 289.408 171.008-293.376a32 32 0 0 1 39.808-13.653333z" p-id="9966"></path></svg>