<?xml version="1.0" standalone="no"?><!DOCTYPE svg PUBLIC "-//W3C//DTD SVG 1.1//EN" "http://www.w3.org/Graphics/SVG/1.1/DTD/svg11.dtd"><svg t="1631011010361" class="icon" viewBox="0 0 1024 1024" version="1.1" xmlns="http://www.w3.org/2000/svg" p-id="1832" xmlns:xlink="http://www.w3.org/1999/xlink" width="200" height="200"><defs><style type="text/css"></style></defs><path d="M838.035394 305.617455a31.030303 31.030303 0 0 1 43.907879 0 310.365091 310.365091 0 0 1 0 438.830545 31.030303 31.030303 0 0 1-43.907879-43.876848 248.180364 248.180364 0 0 0 0-351.076849 31.030303 31.030303 0 0 1 0-43.876848zM614.182788 124.803879a31.030303 31.030303 0 0 1 17.408 27.865212v744.727273a31.030303 31.030303 0 0 1-50.082909 24.513939l-270.894546-210.695758H135.13697a62.060606 62.060606 0 0 1-62.060606-62.060606v-248.242424a62.060606 62.060606 0 0 1 62.060606-62.060606h175.538424l270.894545-210.695757a31.030303 31.030303 0 0 1 32.643879-3.351273z m-44.652606 91.322182l-229.189818 178.23806a31.030303 31.030303 0 0 1-19.052606 6.547394h-186.181819v248.242424h186.181819a31.030303 31.030303 0 0 1 19.052606 6.516364l229.189818 178.269091V216.126061z" fill="#303133" p-id="1833"></path><path d="M321.287758 338.850909a31.030303 31.030303 0 0 1 31.030303 31.030303v310.30303a31.030303 31.030303 0 1 1-62.060606 0v-310.30303a31.030303 31.030303 0 0 1 31.030303-31.030303zM728.343273 415.340606a31.030303 31.030303 0 0 1 43.876848 0 155.151515 155.151515 0 0 1 0 219.384242 31.030303 31.030303 0 1 1-43.876848-43.876848 93.090909 93.090909 0 0 0 0-131.630545 31.030303 31.030303 0 0 1 0-43.876849z" fill="#303133" p-id="1834"></path></svg>