<?xml version="1.0" standalone="no"?><!DOCTYPE svg PUBLIC "-//W3C//DTD SVG 1.1//EN" "http://www.w3.org/Graphics/SVG/1.1/DTD/svg11.dtd"><svg t="1629883739274" class="icon" viewBox="0 0 1024 1024" version="1.1" xmlns="http://www.w3.org/2000/svg" p-id="7241" xmlns:xlink="http://www.w3.org/1999/xlink" width="200" height="200"><defs><style type="text/css"></style></defs><path d="M1024 0h-80.497778L512 431.502222l-137.671111-137.671111a199.111111 199.111111 0 1 0-80.497778 80.497778L431.502222 512l-137.671111 137.671111a199.111111 199.111111 0 1 0 80.497778 80.497778L512 592.497778 943.502222 1024H1024v-80.497778L592.497778 512 1024 80.497778zM113.777778 199.111111a85.333333 85.333333 0 1 1 85.333333 85.333333 85.333333 85.333333 0 0 1-85.333333-85.333333z m85.333333 711.111111a85.333333 85.333333 0 1 1 85.333333-85.333333 85.333333 85.333333 0 0 1-85.333333 85.333333z" p-id="7242"></path></svg>